<svg width="15" height="15" viewBox="0 0 15 15" fill="none" xmlns="http://www.w3.org/2000/svg">
<path d="M6.35626 11.7924C7.54559 11.7924 8.65611 11.3985 9.55885 10.7421L12.9549 14.199C13.1126 14.3595 13.3203 14.4397 13.5353 14.4397C14.0009 14.4397 14.3377 14.075 14.3377 13.6083C14.3377 13.3896 14.266 13.1853 14.1085 13.0249L10.7339 9.58257C11.4432 8.63446 11.8659 7.46023 11.8659 6.18398C11.8659 3.09902 9.38693 0.575623 6.35626 0.575623C3.31843 0.575623 0.846615 3.09902 0.846615 6.18398C0.846615 9.26891 3.31843 11.7924 6.35626 11.7924ZM6.35626 10.5817C3.98475 10.5817 2.03595 8.59073 2.03595 6.18398C2.03595 3.77727 3.98475 1.78627 6.35626 1.78627C8.7206 1.78627 10.6765 3.77727 10.6765 6.18398C10.6765 8.59073 8.7206 10.5817 6.35626 10.5817Z" fill="#2E3192"/>
</svg>
