<svg width="17" height="21" viewBox="0 0 17 21" fill="none" xmlns="http://www.w3.org/2000/svg">
<path d="M8.19354 20.0968C9.29354 20.0968 10.1935 19.1968 10.1935 18.0968H6.19354C6.19354 19.1968 7.09354 20.0968 8.19354 20.0968ZM14.1935 14.0968V9.09677C14.1935 6.02677 12.5635 3.45677 9.69354 2.77677V2.09677C9.69354 1.26677 9.02354 0.596771 8.19354 0.596771C7.36354 0.596771 6.69354 1.26677 6.69354 2.09677V2.77677C3.83354 3.45677 2.19354 6.01677 2.19354 9.09677V14.0968L0.193542 16.0968V17.0968H16.1935V16.0968L14.1935 14.0968ZM12.1935 15.0968H4.19354V9.09677C4.19354 6.61677 5.70354 4.59677 8.19354 4.59677C10.6835 4.59677 12.1935 6.61677 12.1935 9.09677V15.0968Z" fill="#515151"/>
</svg>
